# xmcd
#
# Track frame offsets:
#	150
#	2716
#	29235
#	48638
#	78442
#	116302
#	158256
#	184965
#	217680
#	253965
#	286509
#
# Disc length: 4508 seconds
#
# Revision: 1
# Processed by: cddbd v1.5PL3 Copyright (c) Steve Scherf et al.
# Submitted via: audiograbber 1.83.01
#
DISCID=8a119a0b
DTITLE=Hugh Pool Band - Live at the Rodeo Bar
DYEAR=2001
DGENRE=Bluesrock
TTITLE0=Intro
TTITLE1=Country Blues # 1
TTITLE2=Angel Hair
TTITLE3=Schoolboy's Boogie
TTITLE4=How Many More Years
TTITLE5=Meantown Blues
TTITLE6=Goin Downtown
TTITLE7=Jack O Diamonds
TTITLE8=Baby Please Oon't Go
TTITLE9=Last Fair Deal
TTITLE10=Daten CD
EXTD=
EXTT0=
EXTT1=
EXTT2=
EXTT3=
EXTT4=
EXTT5=
EXTT6=
EXTT7=
EXTT8=
EXTT9=
EXTT10=
PLAYORDER=
